# xmcd
#
# Track frame offsets: 
#        150
#        26041
#        50618
#        69303
#        94847
#        114144
#        136303
#        160266
#        182251
#        202235
#        226919
#        242226
#        258871
#        287549
#
# Disc length: 4473 seconds
#
# Revision: 0
# Processed by: cddbd v1.5.2PL0 Copyright (c) Steve Scherf et al.
# Submitted via: ExactAudioCopy v0.99pb3
#
DISCID=bb11770e
DTITLE=Бутырка - Усталый Дождь
DYEAR=2004
DGENRE=Chanson
TTITLE0=Не Трогай Осень
TTITLE1=Весточка
TTITLE2=Шарик
TTITLE3=Метеорит
TTITLE4=Последний Рассвет
TTITLE5=Пойду Я С Господом
TTITLE6=Грев
TTITLE7=Мама
TTITLE8=Город Встреч
TTITLE9=Два Полюса
TTITLE10=Дорожки
TTITLE11=Отсижу За Чужие Грехи
TTITLE12=Кольщик
TTITLE13=Bonus - Video
EXTD=
EXTT0=
EXTT1=
EXTT2=
EXTT3=
EXTT4=
EXTT5=
EXTT6=
EXTT7=
EXTT8=
EXTT9=
EXTT10=
EXTT11=
EXTT12=
EXTT13=
PLAYORDER=
